<?xml version="1.0" encoding="UTF-8" standalone="no"?>
<svg width="70px" height="15px" viewBox="0 0 70 15" version="1.1" xmlns="http://www.w3.org/2000/svg" xmlns:xlink="http://www.w3.org/1999/xlink">
    <!-- Generator: Sketch 40.3 (33839) - http://www.bohemiancoding.com/sketch -->
    <title>Logo</title>
    <desc>Created with Sketch.</desc>
    <defs></defs>
    <g id="Page-1" stroke="none" stroke-width="1" fill="none" fill-rule="evenodd">
        <g id="Desktop-Copy" transform="translate(-25.000000, -31.000000)">
            <g id="Logo" transform="translate(25.000000, 31.000000)">
                <path d="M8.02064516,9.50769231 L10.0077419,9.50769231 L10.0077419,13.2 C9.62236366,13.4830783 9.13161588,13.7046146 8.53548387,13.8646154 C7.93935186,14.0246162 7.32817517,14.1046154 6.70193548,14.1046154 C5.9070928,14.1046154 5.15140143,13.9846166 4.43483871,13.7446154 C3.71827599,13.5046142 3.08903497,13.1169258 2.54709677,12.5815385 C2.00515858,12.0461512 1.57161453,11.3507735 1.24645161,10.4953846 C0.921288697,9.63999572 0.758709677,8.60308302 0.758709677,7.38461538 C0.758709677,6.11691674 0.942363755,5.05538889 1.30967742,4.2 C1.67699108,3.34461111 2.14967453,2.65538723 2.72774194,2.13230769 C3.30580934,1.60922815 3.95010397,1.23384729 4.66064516,1.00615385 C5.37118635,0.7784604 6.06967399,0.664615385 6.75612903,0.664615385 C7.47871329,0.664615385 8.08988997,0.726153231 8.58967742,0.849230769 C9.08946486,0.972308308 9.50193386,1.11384535 9.82709677,1.27384615 L9.82709677,5.11384615 L7.84,5.11384615 L7.84,3.00923077 C7.4666648,2.947692 7.08129231,2.91692308 6.68387097,2.91692308 C6.2141912,2.91692308 5.77763643,3.00615295 5.37419355,3.18461538 C4.97075067,3.36307782 4.61849613,3.63692123 4.31741935,4.00615385 C4.01634258,4.37538646 3.78150622,4.8399972 3.61290323,5.4 C3.44430023,5.9600028 3.36,6.62153465 3.36,7.38461538 C3.36,8.04923409 3.43827879,8.65538188 3.59483871,9.20307692 C3.75139863,9.75077197 3.98021355,10.2215365 4.28129032,10.6153846 C4.5823671,11.0092327 4.94967525,11.3138451 5.38322581,11.5292308 C5.81677636,11.7446165 6.31053486,11.8523077 6.86451613,11.8523077 C7.26193747,11.8523077 7.64730996,11.815385 8.02064516,11.7415385 L8.02064516,9.50769231 Z" id="C" fill="#08C58A"></path>
                <path d="M19.88,8.43692308 L15.7974194,8.43692308 L15.7974194,13.8461538 L13.3225806,13.8461538 L13.3225806,0.923076923 L15.7974194,0.923076923 L15.7974194,6.18461538 L19.88,6.18461538 L19.88,0.923076923 L22.3548387,0.923076923 L22.3548387,13.8461538 L19.88,13.8461538 L19.88,8.43692308 Z M31.1612903,10.9846154 L27.3858065,10.9846154 L26.5187097,13.8461538 L24.043871,13.8461538 L28.1264516,0.923076923 L30.6012903,0.923076923 L34.6658065,13.8461538 L32.0645162,13.8461538 L31.1612903,10.9846154 Z M27.963871,8.95384615 L30.6735484,8.95384615 L29.3909678,4.63384615 L29.2283871,4.63384615 L27.963871,8.95384615 Z M36.3548388,0.923076923 C36.4632264,0.910769169 36.6529019,0.892307815 36.923871,0.867692308 C37.1948401,0.8430768 37.5019338,0.821538554 37.8451613,0.803076923 C38.1883889,0.784615292 38.5436541,0.769230831 38.9109678,0.756923077 C39.2782815,0.744615323 39.6064502,0.738461538 39.8954839,0.738461538 C41.0154895,0.738461538 41.9427921,0.904613723 42.6774194,1.23692308 C43.4120467,1.56923243 43.9931162,2.02768938 44.4206452,2.61230769 C44.8481742,3.196926 45.1462358,3.88614988 45.3148388,4.68 C45.4834418,5.47385012 45.567742,6.33845686 45.567742,7.27384615 C45.567742,8.12308117 45.4834418,8.95384209 45.3148388,9.76615385 C45.1462358,10.5784656 44.8421528,11.3015353 44.4025807,11.9353846 C43.9630086,12.5692339 43.3548426,13.0799981 42.5780646,13.4676923 C41.8012865,13.8553866 40.8047373,14.0492308 39.5883872,14.0492308 C39.395698,14.0492308 39.1488188,14.043077 38.847742,14.0307692 C38.5466652,14.0184615 38.2395715,14.003077 37.9264517,13.9846154 C37.6133318,13.9661538 37.3122596,13.9476924 37.0232259,13.9292308 C36.7341922,13.9107691 36.5113987,13.8892309 36.3548388,13.8646154 L36.3548388,0.923076923 Z M39.9858065,2.99076923 C39.7569882,2.99076923 39.5341947,2.99999991 39.3174194,3.01846154 C39.1006441,3.03692317 38.9380651,3.05230763 38.8296775,3.06461538 L38.8296775,11.7230769 C38.8778498,11.7353847 38.9501071,11.7446154 39.0464517,11.7507692 C39.1427962,11.7569231 39.2421501,11.7630769 39.3445162,11.7692308 C39.4468823,11.7753846 39.5462361,11.7815384 39.6425807,11.7876923 C39.7389253,11.7938462 39.8172041,11.7969231 39.8774194,11.7969231 C40.5759175,11.7969231 41.1329012,11.6646167 41.5483872,11.4 C41.9638731,11.1353833 42.2739775,10.7876945 42.4787097,10.3569231 C42.6834419,9.92615169 42.8159137,9.44000271 42.8761291,8.89846154 C42.9363444,8.35692037 42.9664517,7.81538732 42.9664517,7.27384615 C42.9664517,6.80615151 42.9393552,6.32000252 42.8851613,5.81538462 C42.8309675,5.31076671 42.7045172,4.84923286 42.5058065,4.43076923 C42.3070958,4.0123056 42.0090343,3.66769366 41.611613,3.39692308 C41.2141916,3.12615249 40.6722616,2.99076923 39.9858065,2.99076923 L39.9858065,2.99076923 Z M47.6180646,7.38461538 C47.6180646,6.33845631 47.7144077,5.39692726 47.9070969,4.56 C48.099786,3.72307274 48.3948368,3.0184644 48.7922581,2.44615385 C49.1896795,1.87384329 49.6864487,1.43384769 50.2825807,1.12615385 C50.8787127,0.81846 51.5802111,0.664615385 52.3870969,0.664615385 C53.254198,0.664615385 53.9888143,0.830767569 54.5909678,1.16307692 C55.1931214,1.49538628 55.6838692,1.95692012 56.0632259,2.54769231 C56.4425826,3.13846449 56.7195691,3.84614972 56.8941936,4.67076923 C57.0688182,5.49538874 57.1561291,6.39999508 57.1561291,7.38461538 C57.1561291,9.48924129 56.7617245,11.1353787 55.9729033,12.3230769 C55.1840822,13.5107752 53.9888253,14.1046154 52.3870969,14.1046154 C51.5199957,14.1046154 50.7823687,13.9384632 50.1741936,13.6061538 C49.5660185,13.2738445 49.07226,12.8123106 48.6929033,12.2215385 C48.3135466,11.6307663 48.0395708,10.923081 47.8709678,10.0984615 C47.7023648,9.27384203 47.6180646,8.36923569 47.6180646,7.38461538 L47.6180646,7.38461538 Z M50.2193549,7.38461538 C50.2193549,8.01231083 50.2464514,8.59692037 50.3006452,9.13846154 C50.3548391,9.68000271 50.4572036,10.1507672 50.607742,10.5507692 C50.7582804,10.9507712 50.9750524,11.2676911 51.2580646,11.5015385 C51.5410768,11.7353858 51.9174171,11.8523077 52.3870969,11.8523077 C52.8086043,11.8523077 53.1578482,11.7630778 53.4348388,11.5846154 C53.7118294,11.406153 53.9346229,11.1323095 54.1032259,10.7630769 C54.2718289,10.3938443 54.3892471,9.92923357 54.455484,9.36923077 C54.5217208,8.80922797 54.5548388,8.14769612 54.5548388,7.38461538 C54.5548388,6.78153545 54.5337637,6.20923348 54.491613,5.66769231 C54.4494622,5.12615114 54.3531191,4.65230972 54.2025807,4.24615385 C54.0520423,3.83999797 53.8322596,3.51692428 53.5432259,3.27692308 C53.2541922,3.03692188 52.8688197,2.91692308 52.3870969,2.91692308 C51.5440819,2.91692308 50.9720446,3.29230394 50.6709678,4.04307692 C50.369891,4.79384991 50.2193549,5.90768492 50.2193549,7.38461538 L50.2193549,7.38461538 Z M61.6451614,8.14153846 L61.6812904,9.69230769 L61.7535485,9.69230769 L62.0606453,8.23384615 L63.1445162,4.8 L64.9870969,4.8 L65.9987098,8.23384615 L66.3238711,9.69230769 L66.3961291,9.69230769 L66.4322582,8.10461538 L66.9380646,0.923076923 L69.2141937,0.923076923 L67.9135485,13.8461538 L65.8180646,13.8461538 L64.4632259,9.76615385 L64.047742,7.99384615 L63.9574195,7.99384615 L63.5238711,9.76615385 L62.0606453,13.8461538 L59.8929033,13.8461538 L58.5922582,0.923076923 L61.0670969,0.923076923 L61.6451614,8.14153846 Z" id="HADOW" fill="#FFFFFF"></path>
            </g>
        </g>
    </g>
</svg>